<?xml version="1.0" encoding="utf-8"?>
<!-- Generator: Adobe Illustrator 15.0.0, SVG Export Plug-In . SVG Version: 6.00 Build 0)  -->
<!DOCTYPE svg PUBLIC "-//W3C//DTD SVG 1.1//EN" "http://www.w3.org/Graphics/SVG/1.1/DTD/svg11.dtd">
<svg version="1.1" id="Layer_1" xmlns="http://www.w3.org/2000/svg" xmlns:xlink="http://www.w3.org/1999/xlink" x="0px" y="0px"
	 width="214.359px" height="98.903px" viewBox="0 0 214.359 98.903" enable-background="new 0 0 214.359 98.903"
	 xml:space="preserve">
<g>
	<path fill="#FFFFFF" d="M51.232,49.87c-2.933-2.301-6.159-4.224-9.589-5.714c-3.29-1.428-6.401-2.676-9.313-3.733
		c-1.736-0.578-3.429-1.205-5.035-1.865c-1.469-0.603-2.797-1.341-3.949-2.197c-1.047-0.775-1.867-1.711-2.513-2.868
		c-0.597-1.066-0.899-2.467-0.899-4.165c0-3.267,0.98-6.01,2.998-8.387c1.91-2.253,4.895-3.349,9.123-3.349
		c1.733,0,3.393,0.209,4.93,0.62c1.594,0.428,3.042,0.956,4.302,1.566c1.271,0.617,2.415,1.294,3.397,2.012
		c1.006,0.737,1.816,1.41,2.406,1.999l1.975,1.969l1.742-2.178c1.037-1.296,2.051-2.592,3.047-3.89
		c0.972-1.269,1.967-2.537,2.981-3.806l1.517-1.896l-1.852-1.571c-4.758-4.039-9.184-6.743-13.156-8.038
		c-3.911-1.273-7.752-1.918-11.418-1.918c-5.033,0-9.39,0.807-12.949,2.398c-3.577,1.602-6.506,3.723-8.704,6.303
		c-2.183,2.562-3.772,5.452-4.722,8.591C4.62,22.823,4.196,25.94,4.29,29c0.093,4.133,0.922,7.72,2.466,10.659
		c1.495,2.854,3.335,5.287,5.468,7.228c2.094,1.908,4.346,3.448,6.693,4.574c2.193,1.054,4.109,1.899,5.686,2.511
		c2.021,0.791,4.399,1.629,7.068,2.488c2.475,0.799,4.879,1.869,7.147,3.184c2.146,1.242,3.975,2.822,5.437,4.695
		c1.328,1.702,1.973,3.926,1.973,6.799c0,2.077-0.386,3.901-1.146,5.422c-0.782,1.563-1.793,2.816-3.09,3.833
		c-1.336,1.047-2.902,1.854-4.654,2.403c-1.8,0.563-3.707,0.848-5.666,0.848c-2.215,0-4.289-0.305-6.166-0.908
		c-1.931-0.617-3.729-1.437-5.346-2.438c-1.676-1.036-3.252-2.188-4.685-3.423c-1.472-1.267-2.741-2.474-3.772-3.588l-1.766-1.905
		L0,81.317l1.102,1.697c1.235,1.904,2.972,3.813,5.157,5.673c2.117,1.806,4.566,3.478,7.277,4.969
		c2.713,1.492,5.73,2.728,8.969,3.672c3.291,0.96,6.721,1.446,10.191,1.446c3.859,0,7.592-0.631,11.097-1.875
		c3.542-1.259,6.691-3.107,9.358-5.494c2.683-2.4,4.828-5.33,6.377-8.709c1.555-3.393,2.344-7.237,2.344-11.43
		c0-4.871-1.041-9.135-3.096-12.672C56.784,55.171,54.246,52.235,51.232,49.87z"/>
	<path fill="#FFFFFF" d="M104.708,70.497c0,1.847-0.375,3.495-1.146,5.036c-0.796,1.592-1.854,2.979-3.145,4.125
		c-1.303,1.158-2.836,2.08-4.555,2.739c-1.695,0.648-3.508,0.981-5.39,0.989c-2.512-0.142-4.302-0.789-5.323-1.928
		c-1.108-1.234-1.718-2.672-1.861-4.391V44.655H67.644l0.002,37.483c0.197,4.95,2.025,9.033,5.43,12.136
		c3.367,3.072,7.947,4.629,13.613,4.629c5.08,0,9.783-1.363,13.98-4.051c1.486-0.951,2.834-2.024,4.039-3.215v7.266h15.646V44.655
		h-15.646V70.497z"/>
	<path fill="#FFFFFF" d="M155.316,44.546c-1.852,0.665-3.756,1.639-5.66,2.894c-1.906,1.254-3.736,2.802-5.439,4.598
		c-0.057,0.061-0.115,0.121-0.172,0.183c-0.098-1.244-0.207-2.583-0.324-4.015v-3.551h-14.363v54.213h15.645V71.907
		c0-3.748,1.287-6.754,3.938-9.188c2.709-2.491,6.256-3.976,10.865-3.976l3.471,0.078v-15.32h-2.689
		C159.002,43.501,157.279,43.843,155.316,44.546z"/>
	<path fill="#FFFFFF" d="M211.76,1.436c-0.106,0.004-0.211,0.013-0.317,0.018c-4.204,0.172-8.15,0.442-11.831,1.724
		c-2.523,0.88-4.789,2.048-6.842,3.453c-1.687,1.016-3.247,2.175-4.664,3.48c-2.982,2.749-5.363,6.163-7.078,10.148
		c-1.709,3.972-2.576,8.576-2.576,13.685v9.557h-8.209V58.89h8.209v39.979h15.645V58.89h15.006V43.501h-15.006v-9.172
		c0-5.636,1.596-9.81,4.879-12.761c3.4-3.057,7.662-4.695,13.029-5.007l2.355-0.137V1.333L211.76,1.436z"/>
</g>
</svg>
